# xmcd
#
# Track frame offsets: 
#        150
#        12527
#        24549
#        37811
#        54492
#        63003
#        77019
#        88386
#        100091
#        112959
#        126335
#        145970
#        162817
#        179145
#
# Disc length: 2543 seconds
#
# Revision: 0
# Processed by: cddbd v1.5.2PL0 Copyright (c) Steve Scherf et al.
# Submitted via: ExactAudioCopy v0.95b4
#
DISCID=b709ed0e
DTITLE=Eddie Blazonczyk Jr.and Sr. - Masters of the New American Polka
DYEAR=1998
DGENRE=Country
TTITLE0=Polka Celebration
TTITLE1=My MaryLou
TTITLE2=Ukrania
TTITLE3=As Life Rolls On
TTITLE4=Pretty MaryAnn
TTITLE5=Talking to the Wrong Man
TTITLE6=When the Sun Somes Up Over the Tavern
TTITLE7=We Were made for Each Other
TTITLE8=Accordion A-Go-Go
TTITLE9=Did You Have to Bring That Up
TTITLE10=White Roses
TTITLE11=LYing In My Arms
TTITLE12=Polka Hero
TTITLE13=that's Where My Money Goes
EXTD=
EXTT0=
EXTT1=
EXTT2=
EXTT3=
EXTT4=
EXTT5=
EXTT6=
EXTT7=
EXTT8=
EXTT9=
EXTT10=
EXTT11=
EXTT12=
EXTT13=
PLAYORDER=
